<?xml version="1.0" encoding="utf-8"?>
<!-- Generator: Adobe Illustrator 22.0.1, SVG Export Plug-In . SVG Version: 6.00 Build 0)  -->
<svg version="1.1" xmlns="http://www.w3.org/2000/svg" xmlns:xlink="http://www.w3.org/1999/xlink" x="0px" y="0px"
	 viewBox="0 0 64 64" enable-background="new 0 0 64 64" xml:space="preserve">
<g id="guides">
</g>
<g id="bar_chart">
</g>
<g id="podium">
</g>
<g id="trophy">
</g>
<g id="line_graph">
</g>
<g id="report">
</g>
<g id="compass">
</g>
<g id="achievement">
</g>
<g id="chat">
	<g>
		<path fill="#231F20" d="M58.58594,25H39V11.40039C39,9.52539,37.46875,8,35.58594,8H5.41357C3.53125,8,2,9.52539,2,11.40039
			v19.19922C2,32.47461,3.53125,34,5.41357,34h1.40607l-0.80597,4.83594c-0.06396,0.38477,0.10107,0.77148,0.42334,0.99023
			c0.30613,0.2078,0.73873,0.23564,1.07764,0.03125l9.81421-5.88849C17.3811,33.97736,17.42828,34,17.48291,34H25v12.66309
			C25,48.50293,26.53125,50,28.41357,50h18.30939c0,0,9.76239,5.85742,9.76251,5.85749
			c0.33421,0.20087,0.75605,0.18946,1.07703-0.03132c0.32227-0.21875,0.48828-0.60547,0.42383-0.99023L57.18036,50h1.40558
			C60.46875,50,62,48.51953,62,46.7002V28.2998C62,26.48047,60.46875,25,58.58594,25z M8.98633,33.16406
			C9.10643,32.44341,8.48897,32,7.82764,32H5.41357C4.63428,32,4,31.37207,4,30.59961V11.40039C4,10.62793,4.63428,10,5.41357,10
			h30.17236C36.36523,10,37,10.62793,37,11.40039v19.19922C37,31.37207,36.36523,32,35.58594,32c0,0-18.10303,0-18.1031,0
			c-0.3294,0.00008-0.7038-0.03366-0.99748,0.14258l-8.14307,4.88574C8.34229,37.02832,8.98507,33.17159,8.98633,33.16406z
			 M60,46.7002C60,47.41699,59.36523,48,58.58593,48c-0.50647,0-1.01295,0-1.51942,0c-0.60237,0-1.41989-0.14338-1.84187,0.39432
			c-0.46991,0.59877-0.03508,1.82587,0.0782,2.50605c0.11692,0.70203,0.23383,1.40407,0.35439,2.12795l-8.14258-4.88574
			c-0.0202-0.01215-0.04315-0.01215-0.06384-0.0227c-0.11241-0.05735-0.25892-0.09789-0.38477-0.10657
			C47.04303,48.01172,47.02344,48,47,48H28.41357C27.63428,48,27,47.40039,27,46.66309V34h8.58594
			C37.46875,34,39,32.47461,39,30.59961V27h19.58594C59.36523,27,60,27.58301,60,28.2998V46.7002z"/>
		<path fill="#231F20" d="M9,16h23c0.55225,0,1-0.44727,1-1s-0.44775-1-1-1H9c-0.55225,0-1,0.44727-1,1S8.44775,16,9,16z"/>
		<path fill="#231F20" d="M9,22h17c0.55225,0,1-0.44727,1-1s-0.44775-1-1-1H9c-0.55225,0-1,0.44727-1,1S8.44775,22,9,22z"/>
		<path fill="#231F20" d="M23,27c0-0.55273-0.44775-1-1-1H9c-0.55225,0-1,0.44727-1,1s0.44775,1,1,1h13
			C22.55225,28,23,27.55273,23,27z"/>
	</g>
</g>
<g id="calender">
</g>
<g id="line_chart">
</g>
<g id="idea">
</g>
<g id="funnel">
</g>
<g id="setting">
</g>
<g id="email">
</g>
<g id="calculator">
</g>
<g id="flag">
</g>
<g id="target">
</g>
<g id="contract">
</g>
<g id="folder">
</g>
<g id="user">
</g>
</svg>
